<?xml version="1.0" standalone="no"?>
<!DOCTYPE svg PUBLIC "-//W3C//DTD SVG 20010904//EN"
 "http://www.w3.org/TR/2001/REC-SVG-20010904/DTD/svg10.dtd">
<svg version="1.0" xmlns="http://www.w3.org/2000/svg"
 width="1142.000000pt" height="1142.000000pt" viewBox="0 0 1142.000000 1142.000000"
 preserveAspectRatio="xMidYMid meet">
<metadata>
Created by potrace 1.11, written by Peter Selinger 2001-2013
</metadata>
<g transform="translate(0.000000,1142.000000) scale(0.100000,-0.100000)"
fill="#000000" stroke="none">
<path d="M5355 11370 c-535 -34 -1135 -164 -1640 -355 -607 -230 -1148 -547
-1665 -975 -161 -134 -546 -519 -680 -680 -315 -380 -538 -724 -754 -1160
-463 -934 -654 -1967 -561 -3030 47 -536 192 -1127 399 -1626 400 -968 1009
-1756 1846 -2393 428 -326 997 -631 1515 -813 454 -159 918 -261 1385 -304
1092 -100 2228 129 3182 641 487 262 857 529 1263 913 410 388 801 900 1068
1398 537 1005 762 2102 662 3228 -91 1025 -477 2035 -1095 2866 -185 248 -293
374 -539 623 -337 342 -702 628 -1141 891 -141 85 -605 314 -760 375 -519 205
-1016 325 -1600 387 -174 18 -686 26 -885 14z"/>
</g>
</svg>
